PathFileType	4	(X/Y/Z)	C:\Users\Hakeem\Desktop\Python Projects\BasketballMotionAnalysis\Sports2D_Results\free_throw_Sports2D\free_throw_Sports2D_m_person00.trc
DataRate	CameraRate	NumFrames	NumMarkers	Units	OrigDataRate	OrigDataStartFrame	OrigNumFrames
30.0	30.0	6	22	m	30.0	0	90
Frame#	Time	Hip			RHip			RKnee			RAnkle			RBigToe			RSmallToe			RHeel			LHip			LKnee			LAnkle			LBigToe			LSmallToe			LHeel			Neck			Head			Nose			RShoulder			RElbow			RWrist			LShoulder			LElbow			LWrist			
		X1	Y1	Z1	X2	Y2	Z2	X3	Y3	Z3	X4	Y4	Z4	X5	Y5	Z5	X6	Y6	Z6	X7	Y7	Z7	X8	Y8	Z8	X9	Y9	Z9	X10	Y10	Z10	X11	Y11	Z11	X12	Y12	Z12	X13	Y13	Z13	X14	Y14	Z14	X15	Y15	Z15	X16	Y16	Z16	X17	Y17	Z17	X18	Y18	Z18	X19	Y19	Z19	X20	Y20	Z20	X21	Y21	Z21	X22	Y22	Z22
0	0.0	2.663436106212568	0.7787111374096496	0.0301	2.627640073251199	0.8080105482692742	0.0301	2.5497108873856456	0.4465902883866841	0.129	2.2713279482724107	0.13818591796228372	0.023	2.4096863298473954	0.01298449050035346	0.2179	2.3595763969393153	0.016088355512467102	0.1804	2.2024671506903317	0.10595783040256676	-0.0119	2.714972013167477	0.7583305763989163	0.0301	2.6784121856165264	0.40391610836344694	0.129	2.406054851545798	0.1377002946307545	0.023	2.5351291301975794	-0.0006772618728251881	0.2179	2.5253274108883708	0.015491062612548342	0.1804	2.3489319734149343	0.10542916292398925	-0.0119	3.0217846678242517	1.1993639458265146	0.0008	3.1977610041995086	1.4015054338591573	0.0655	3.2029727255145084	1.2747916101151633	0.1076	2.9384749670543022	1.1624347813824205	-0.01275	2.8011839557861875	0.9465506579451355	0.0702	2.9854536211439853	0.8436470454951726	0.1076	2.992460982992127	1.1351990404620158	-0.01275	2.872649442276562	0.9328835856014993	0.0702	2.958462965076166	0.7680460606372713	0.1076
1	0.033707865168539325	2.6648847125508364	0.7791921588505678	0.0301	2.6273187672018183	0.8095851816502037	0.0301	2.5494400816703005	0.44807815492426345	0.129	2.269810304385189	0.13818353539784878	0.023	2.4096167798522883	0.014807676912117757	0.2179	2.358060325434432	0.01882036906467114	0.1804	2.2017087667298827	0.1056467986979291	-0.0119	2.715799497622917	0.7589282944749552	0.0301	2.6760750735891405	0.40383089988385823	0.129	2.40524876141141	0.13552751808980643	0.023	2.5370677441454155	-0.002149375487194937	0.2179	2.527818597769178	0.015824058131252906	0.1804	2.3497328488518754	0.10485343405621025	-0.0119	3.022761785612218	1.2028075451493	0.0008	3.1989552788826985	1.4021797273161511	0.0655	3.2037498182214357	1.2742201669677122	0.1076	2.940424325685154	1.1641737173546438	-0.01275	2.7982482523157612	0.9494524328863094	0.0702	2.9845875666975674	0.8437143812127859	0.1076	2.99326881568887	1.137554911362763	-0.01275	2.8671464708355856	0.9373876785959189	0.0702	2.959295983550612	0.7773813944799325	0.1076
2	0.06741573033707865	2.6626509871540978	0.7752991938436644	0.0301	2.623846938882417	0.8063765545079667	0.0301	2.5519970756948607	0.44453334450751647	0.129	2.2693900849561226	0.1374991992290582	0.023	2.4092736756931448	0.0140745953267102	0.2179	2.355180890080201	0.01881533061951901	0.1804	2.201196930578519	0.10519321206911142	-0.0119	2.712224209335611	0.75655956163769	0.0301	2.6782349300329873	0.3993522044256019	0.129	2.4062866592901773	0.13327158425874025	0.023	2.5379336541834054	-0.003233139792542492	0.2179	2.5293564205401258	0.015798336812878434	0.1804	2.350579241285149	0.10434333574374828	-0.0119	3.0205072340796715	1.200724696094128	0.0008	3.196518323162287	1.395743260837423	0.0655	3.2019376332991887	1.2674938636424768	0.1076	2.9430487594415933	1.160526183182661	-0.01275	2.797251354682494	0.9452930969573219	0.0702	2.9865277109279935	0.8406449305452596	0.1076	2.9887891673481954	1.1374671614282474	-0.01275	2.8566962037134216	0.9346131100636501	0.0702	2.958653940953177	0.7820383238962505	0.1076
3	0.10112359550561797	2.655022923680968	0.7651368975364323	0.0301	2.616649989527211	0.7952525144677838	0.0301	2.558091500508676	0.4340164959230108	0.129	2.2721403274502427	0.1360812962550042	0.023	2.408590348119172	0.010127591673018688	0.2179	2.351707291570698	0.015025466809892803	0.1804	2.2015550274411755	0.1053041777155981	-0.0119	2.702985635890685	0.7489765285255893	0.0301	2.687397142575657	0.3894842088512656	0.129	2.410288217657178	0.13166808497368956	0.023	2.536658189348203	-0.0030948762609976565	0.2179	2.5293041798631153	0.015166331588559253	0.1804	2.3510862142260587	0.10399668481173764	-0.0119	3.013483837043074	1.1896610350309988	0.0008	3.188827607095745	1.3803212953011716	0.0655	3.195616468689776	1.2527888705857	0.1076	2.9438150292947967	1.148016744660941	-0.01275	2.8000266954396404	0.9281431620258405	0.0702	2.9933548440517312	0.8326674334391521	0.1076	2.9767806907354295	1.131215124189569	-0.01275	2.8432427280790433	0.9201118993800163	0.0702	2.958087599413678	0.7799204426520062	0.1076
4	0.1348314606741573	2.644653806598026	0.7513140170028738	0.0301	2.6078784125735366	0.7782547624272605	0.0301	2.5672626402259704	0.4195740240192504	0.129	2.2780879840270205	0.13490331085696108	0.023	2.407545176092002	0.0061098656871838315	0.2179	2.3497353645709187	0.011125148457824514	0.1804	2.202983732059678	0.10680967346201331	-0.0119	2.690092948824787	0.7367342272337948	0.0301	2.700133206405531	0.37742843813944155	0.129	2.4154319252440875	0.13153987987754887	0.023	2.533770684229922	-0.0018005762570949893	0.2179	2.528741328226412	0.014797899774961484	0.1804	2.35148938369053	0.10433765489327064	-0.0119	3.0042330751398376	1.1720217466648295	0.0008	3.1777895451674376	1.3612869379517707	0.0655	3.1859082832966807	1.233525633480527	0.1076	2.9398208116120625	1.1287936075083216	-0.01275	2.805276533964355	0.8991596462862207	0.0702	3.0032713769295993	0.820957143448496	0.1076	2.9617141110315086	1.1173522453451645	-0.01275	2.8319021663813597	0.9007250955110923	0.0702	2.959862015267153	0.7759653864146988	0.1076
5	0.16853932584269662	2.6358134046802264	0.7379843612583857	0.0301	2.599795034259717	0.7608170482853387	0.0301	2.5784335854627547	0.4053725421811262	0.129	2.283546524808072	0.1346242972626241	0.023	2.405853294148988	0.004733185767564478	0.2179	2.349871347896496	0.010659260101457365	0.1804	2.2046100184834083	0.10896841424255627	-0.0119	2.676761395462357	0.7229125664369215	0.0301	2.7099690099478546	0.36693420163035456	0.129	2.418166265523739	0.13278359850073496	0.023	2.53160709330986	-0.0006513043603968366	0.2179	2.529151640015615	0.015846668033964523	0.1804	2.352309184148889	0.10572855948234296	-0.0119	2.9968301318631423	1.1539546706638655	0.0008	3.1666806939984857	1.3454129896076314	0.0655	3.176555668249413	1.2151547365474094	0.1076	2.93246362505225	1.108623879846608	-0.01275	2.8108163970442437	0.8674095444193055	0.0702	3.012507098205366	0.8099326815851133	0.1076	2.9499740991167873	1.0999138793819792	-0.01275	2.824392062008262	0.8866054784022418	0.0702	2.963535667259405	0.774794511668372	0.1076
